<svg width="27" height="26" viewBox="0 0 27 26" fill="none" xmlns="http://www.w3.org/2000/svg">
<path d="M15.9545 26L12.5182 21.561H6.13636C5.81087 21.561 5.49871 21.4274 5.26855 21.1895C5.03839 20.9517 4.90909 20.6291 4.90909 20.2927V6.4721C4.90909 6.13573 5.03839 5.81313 5.26855 5.57528C5.49871 5.33743 5.81087 5.2038 6.13636 5.2038H25.7727C26.0982 5.2038 26.4104 5.33743 26.6405 5.57528C26.8707 5.81313 27 6.13573 27 6.4721V20.2927C27 20.6291 26.8707 20.9517 26.6405 21.1895C26.4104 21.4274 26.0982 21.561 25.7727 21.561H19.3909L15.9545 26ZM18.2115 19.0244H24.5455V7.74039H7.36364V19.0244H13.6976L15.9545 21.9389L18.2115 19.0244ZM1.22727 0H22.0909V2.53659H2.45455V16.4878H0V1.26829C0 0.931921 0.129302 0.609325 0.35946 0.371474C0.589618 0.133623 0.90178 0 1.22727 0Z" fill="#9378FF" fill-opacity="0.4"/>
</svg>
